<svg id='Code_File_24' width='24' height='24' viewBox='0 0 24 24' xmlns='http://www.w3.org/2000/svg' xmlns:xlink='http://www.w3.org/1999/xlink'><rect width='24' height='24' stroke='none' fill='#000000' opacity='0'/>


<g transform="matrix(0.77 0 0 0.77 12 12)" >
<path style="stroke: none; stroke-width: 1; stroke-dasharray: none; stroke-linecap: butt; stroke-dashoffset: 0; stroke-linejoin: miter; stroke-miterlimit: 4; fill: rgb(0,0,0); fill-rule: nonzero; opacity: 1;" transform=" translate(-15, -15)" d="M 24.707 7.793 L 19.207 2.293 C 19.019 2.105 18.765 2 18.5 2 L 7 2 C 5.895 2 5 2.895 5 4 L 5 26 C 5 27.105 5.895 28 7 28 L 23 28 C 24.105 28 25 27.105 25 26 L 25 8.5 C 25 8.235 24.895 7.981 24.707 7.793 z M 11.832 20.445 C 12.139000000000001 20.904 12.015 21.526 11.555000000000001 21.832 C 11.384 21.946 11.191 22 11.001 22 C 10.677999999999999 22 10.36 21.844 10.168 21.555 L 8.168 18.555 C 7.943999999999999 18.219 7.943999999999999 17.782 8.168 17.445999999999998 L 10.168 14.445999999999998 C 10.472999999999999 13.986999999999998 11.093 13.860999999999997 11.555 14.168999999999999 C 12.015 14.474999999999998 12.139 15.095999999999998 11.831999999999999 15.556 L 10.202 18 L 11.832 20.445 z M 14.98 23.196 C 14.886 23.671 14.468 24 14.001 24 C 13.936 24 13.87 23.994 13.804 23.98 C 13.263 23.872 12.911 23.345 13.02 22.803 L 15.02 12.803 C 15.126999999999999 12.261000000000001 15.657 11.912 16.197 12.019 C 16.738 12.127 17.09 12.654 16.980999999999998 13.196 L 14.98 23.196 z M 21.832 18.555 L 19.832 21.555 C 19.64 21.844 19.322 22 18.999 22 C 18.808999999999997 22 18.616 21.946 18.445 21.832 C 17.985 21.526 17.861 20.905 18.168 20.445 L 19.798 18 L 18.168 15.555 C 17.861 15.096 17.985 14.474 18.445 14.168 C 18.905 13.86 19.525 13.985999999999999 19.832 14.444999999999999 L 21.832 17.445 C 22.056 17.781 22.056 18.219 21.832 18.555 z M 19 9 C 18.448 9 18 8.552 18 8 L 18 3.904 L 23.096 9 L 19 9 z" stroke-linecap="round" />
</g>
</svg>
